<mxfile host="app.diagrams.net" modified="2022-09-14T09:34:20.250Z" agent="5.0 (Macintosh; Intel Mac OS X 10_15_7) AppleWebKit/537.36 (KHTML, like Gecko) Chrome/105.0.0.0 Safari/537.36" etag="EgPY_gxn9h2jeRBcWCms" version="20.3.0" type="github">
  <diagram id="ZAWK1HXFEPgxVHu6XL7L" name="第 1 页">
    <mxGraphModel dx="895" dy="575" grid="1" gridSize="10" guides="1" tooltips="1" connect="1" arrows="1" fold="1" page="1" pageScale="1" pageWidth="827" pageHeight="1169" math="0" shadow="0">
      <root>
        <mxCell id="0" />
        <mxCell id="1" parent="0" />
        <mxCell id="VNx4k_GEtKmAveKFKE6M-1" value="业务实体配置" style="swimlane;childLayout=stackLayout;horizontal=1;startSize=30;horizontalStack=0;rounded=1;fontSize=14;fontStyle=0;strokeWidth=2;resizeParent=0;resizeLast=1;shadow=0;dashed=0;align=center;fillColor=#dae8fc;strokeColor=#6c8ebf;" vertex="1" parent="1">
          <mxGeometry x="54" y="60" width="160" height="120" as="geometry" />
        </mxCell>
        <mxCell id="VNx4k_GEtKmAveKFKE6M-2" value="+ID&#xa;+实体名称&#xa;+日志解析配置&#xa;+binLog解析配置&#xa;+流量解析配置&#xa;+孤岛容忍时长" style="align=left;strokeColor=none;fillColor=none;spacingLeft=4;fontSize=12;verticalAlign=top;resizable=0;rotatable=0;part=1;" vertex="1" parent="VNx4k_GEtKmAveKFKE6M-1">
          <mxGeometry y="30" width="160" height="90" as="geometry" />
        </mxCell>
        <mxCell id="VNx4k_GEtKmAveKFKE6M-3" value="业务链路配置" style="swimlane;childLayout=stackLayout;horizontal=1;startSize=30;horizontalStack=0;rounded=1;fontSize=14;fontStyle=0;strokeWidth=2;resizeParent=0;resizeLast=1;shadow=0;dashed=0;align=center;fillColor=#dae8fc;strokeColor=#6c8ebf;" vertex="1" parent="1">
          <mxGeometry x="339" y="60" width="160" height="120" as="geometry" />
        </mxCell>
        <mxCell id="VNx4k_GEtKmAveKFKE6M-4" value="+ID&#xa;+业务链路配置名称&#xa;+链路不全容忍时长" style="align=left;strokeColor=none;fillColor=none;spacingLeft=4;fontSize=12;verticalAlign=top;resizable=0;rotatable=0;part=1;" vertex="1" parent="VNx4k_GEtKmAveKFKE6M-3">
          <mxGeometry y="30" width="160" height="90" as="geometry" />
        </mxCell>
        <mxCell id="VNx4k_GEtKmAveKFKE6M-6" value="业务链路配置_to_实体配置" style="swimlane;childLayout=stackLayout;horizontal=1;startSize=30;horizontalStack=0;rounded=1;fontSize=14;fontStyle=0;strokeWidth=2;resizeParent=0;resizeLast=1;shadow=0;dashed=0;align=center;fillColor=#dae8fc;strokeColor=#6c8ebf;" vertex="1" parent="1">
          <mxGeometry x="319" y="260" width="200" height="120" as="geometry" />
        </mxCell>
        <mxCell id="VNx4k_GEtKmAveKFKE6M-7" value="+业务链路配置ID&#xa;+前置业务实体配置ID&#xa;+当前实体配置ID" style="align=left;strokeColor=none;fillColor=none;spacingLeft=4;fontSize=12;verticalAlign=top;resizable=0;rotatable=0;part=1;" vertex="1" parent="VNx4k_GEtKmAveKFKE6M-6">
          <mxGeometry y="30" width="200" height="90" as="geometry" />
        </mxCell>
        <mxCell id="VNx4k_GEtKmAveKFKE6M-16" value="业务实体" style="swimlane;childLayout=stackLayout;horizontal=1;startSize=30;horizontalStack=0;rounded=1;fontSize=14;fontStyle=0;strokeWidth=2;resizeParent=0;resizeLast=1;shadow=0;dashed=0;align=center;fillColor=#d5e8d4;strokeColor=#82b366;" vertex="1" parent="1">
          <mxGeometry x="39" y="465" width="190" height="120" as="geometry" />
        </mxCell>
        <mxCell id="VNx4k_GEtKmAveKFKE6M-17" value="+ID&#xa;+对应业务实体配置&#xa;+数据来源：流量|日志|binLog" style="align=left;strokeColor=none;fillColor=none;spacingLeft=4;fontSize=12;verticalAlign=top;resizable=0;rotatable=0;part=1;" vertex="1" parent="VNx4k_GEtKmAveKFKE6M-16">
          <mxGeometry y="30" width="190" height="90" as="geometry" />
        </mxCell>
        <mxCell id="VNx4k_GEtKmAveKFKE6M-18" value="巡检任务" style="swimlane;childLayout=stackLayout;horizontal=1;startSize=30;horizontalStack=0;rounded=1;fontSize=14;fontStyle=0;strokeWidth=2;resizeParent=0;resizeLast=1;shadow=0;dashed=0;align=center;fillColor=#d5e8d4;strokeColor=#82b366;" vertex="1" parent="1">
          <mxGeometry x="339" y="465" width="160" height="120" as="geometry" />
        </mxCell>
        <mxCell id="VNx4k_GEtKmAveKFKE6M-19" value="+任务ID&#xa;+任务状态&#xa;+告警内容" style="align=left;strokeColor=none;fillColor=none;spacingLeft=4;fontSize=12;verticalAlign=top;resizable=0;rotatable=0;part=1;" vertex="1" parent="VNx4k_GEtKmAveKFKE6M-18">
          <mxGeometry y="30" width="160" height="90" as="geometry" />
        </mxCell>
        <mxCell id="VNx4k_GEtKmAveKFKE6M-24" value="" style="endArrow=none;html=1;rounded=0;exitX=0.5;exitY=1;exitDx=0;exitDy=0;entryX=0.5;entryY=0;entryDx=0;entryDy=0;" edge="1" parent="1" source="VNx4k_GEtKmAveKFKE6M-2" target="VNx4k_GEtKmAveKFKE6M-16">
          <mxGeometry relative="1" as="geometry">
            <mxPoint x="434" y="400" as="sourcePoint" />
            <mxPoint x="594" y="400" as="targetPoint" />
          </mxGeometry>
        </mxCell>
        <mxCell id="VNx4k_GEtKmAveKFKE6M-25" value="1" style="edgeLabel;html=1;align=center;verticalAlign=middle;resizable=0;points=[];" vertex="1" connectable="0" parent="VNx4k_GEtKmAveKFKE6M-24">
          <mxGeometry x="-0.7968" y="1" relative="1" as="geometry">
            <mxPoint as="offset" />
          </mxGeometry>
        </mxCell>
        <mxCell id="VNx4k_GEtKmAveKFKE6M-26" value="N" style="edgeLabel;html=1;align=center;verticalAlign=middle;resizable=0;points=[];" vertex="1" connectable="0" parent="VNx4k_GEtKmAveKFKE6M-24">
          <mxGeometry x="0.6969" y="2" relative="1" as="geometry">
            <mxPoint as="offset" />
          </mxGeometry>
        </mxCell>
        <mxCell id="VNx4k_GEtKmAveKFKE6M-27" value="" style="endArrow=none;html=1;rounded=0;exitX=0.5;exitY=1;exitDx=0;exitDy=0;entryX=0.5;entryY=0;entryDx=0;entryDy=0;" edge="1" parent="1" source="VNx4k_GEtKmAveKFKE6M-2" target="VNx4k_GEtKmAveKFKE6M-6">
          <mxGeometry relative="1" as="geometry">
            <mxPoint x="499" y="400" as="sourcePoint" />
            <mxPoint x="369" y="250" as="targetPoint" />
          </mxGeometry>
        </mxCell>
        <mxCell id="VNx4k_GEtKmAveKFKE6M-28" value="N" style="edgeLabel;html=1;align=center;verticalAlign=middle;resizable=0;points=[];" vertex="1" connectable="0" parent="VNx4k_GEtKmAveKFKE6M-27">
          <mxGeometry x="-0.6057" y="3" relative="1" as="geometry">
            <mxPoint as="offset" />
          </mxGeometry>
        </mxCell>
        <mxCell id="VNx4k_GEtKmAveKFKE6M-29" value="N" style="edgeLabel;html=1;align=center;verticalAlign=middle;resizable=0;points=[];" vertex="1" connectable="0" parent="VNx4k_GEtKmAveKFKE6M-27">
          <mxGeometry x="0.6457" y="4" relative="1" as="geometry">
            <mxPoint as="offset" />
          </mxGeometry>
        </mxCell>
        <mxCell id="VNx4k_GEtKmAveKFKE6M-30" value="" style="endArrow=none;html=1;rounded=0;exitX=0.5;exitY=0;exitDx=0;exitDy=0;entryX=0.5;entryY=1;entryDx=0;entryDy=0;" edge="1" parent="1" source="VNx4k_GEtKmAveKFKE6M-6" target="VNx4k_GEtKmAveKFKE6M-4">
          <mxGeometry relative="1" as="geometry">
            <mxPoint x="499" y="400" as="sourcePoint" />
            <mxPoint x="659" y="400" as="targetPoint" />
          </mxGeometry>
        </mxCell>
        <mxCell id="VNx4k_GEtKmAveKFKE6M-31" value="N" style="edgeLabel;html=1;align=center;verticalAlign=middle;resizable=0;points=[];" vertex="1" connectable="0" parent="VNx4k_GEtKmAveKFKE6M-30">
          <mxGeometry x="0.3871" y="-2" relative="1" as="geometry">
            <mxPoint as="offset" />
          </mxGeometry>
        </mxCell>
        <mxCell id="VNx4k_GEtKmAveKFKE6M-32" value="N" style="edgeLabel;html=1;align=center;verticalAlign=middle;resizable=0;points=[];" vertex="1" connectable="0" parent="VNx4k_GEtKmAveKFKE6M-30">
          <mxGeometry x="-0.392" y="-1" relative="1" as="geometry">
            <mxPoint as="offset" />
          </mxGeometry>
        </mxCell>
        <mxCell id="VNx4k_GEtKmAveKFKE6M-33" value="" style="endArrow=none;html=1;rounded=0;exitX=0.995;exitY=0.433;exitDx=0;exitDy=0;exitPerimeter=0;entryX=0;entryY=0.433;entryDx=0;entryDy=0;entryPerimeter=0;" edge="1" parent="1" source="VNx4k_GEtKmAveKFKE6M-17" target="VNx4k_GEtKmAveKFKE6M-19">
          <mxGeometry relative="1" as="geometry">
            <mxPoint x="499" y="450" as="sourcePoint" />
            <mxPoint x="659" y="450" as="targetPoint" />
          </mxGeometry>
        </mxCell>
        <mxCell id="VNx4k_GEtKmAveKFKE6M-34" value="N" style="edgeLabel;html=1;align=center;verticalAlign=middle;resizable=0;points=[];" vertex="1" connectable="0" parent="VNx4k_GEtKmAveKFKE6M-33">
          <mxGeometry x="-0.6827" y="-1" relative="1" as="geometry">
            <mxPoint as="offset" />
          </mxGeometry>
        </mxCell>
        <mxCell id="VNx4k_GEtKmAveKFKE6M-35" value="1" style="edgeLabel;html=1;align=center;verticalAlign=middle;resizable=0;points=[];" vertex="1" connectable="0" parent="VNx4k_GEtKmAveKFKE6M-33">
          <mxGeometry x="0.523" y="3" relative="1" as="geometry">
            <mxPoint y="4" as="offset" />
          </mxGeometry>
        </mxCell>
        <mxCell id="VNx4k_GEtKmAveKFKE6M-36" value="校验规则" style="swimlane;childLayout=stackLayout;horizontal=1;startSize=30;horizontalStack=0;rounded=1;fontSize=14;fontStyle=0;strokeWidth=2;resizeParent=0;resizeLast=1;shadow=0;dashed=0;align=center;fillColor=#dae8fc;strokeColor=#6c8ebf;" vertex="1" parent="1">
          <mxGeometry x="629" y="60" width="160" height="120" as="geometry" />
        </mxCell>
        <mxCell id="VNx4k_GEtKmAveKFKE6M-37" value="+ID&#xa;+业务链路配置ID&#xa;+校验规则脚本&#xa;+告警内容模板" style="align=left;strokeColor=none;fillColor=none;spacingLeft=4;fontSize=12;verticalAlign=top;resizable=0;rotatable=0;part=1;" vertex="1" parent="VNx4k_GEtKmAveKFKE6M-36">
          <mxGeometry y="30" width="160" height="90" as="geometry" />
        </mxCell>
        <mxCell id="VNx4k_GEtKmAveKFKE6M-38" value="" style="endArrow=none;html=1;rounded=0;entryX=0.5;entryY=0;entryDx=0;entryDy=0;exitX=0.5;exitY=1;exitDx=0;exitDy=0;" edge="1" parent="1" source="VNx4k_GEtKmAveKFKE6M-7" target="VNx4k_GEtKmAveKFKE6M-18">
          <mxGeometry relative="1" as="geometry">
            <mxPoint x="399" y="450" as="sourcePoint" />
            <mxPoint x="559" y="450" as="targetPoint" />
          </mxGeometry>
        </mxCell>
        <mxCell id="VNx4k_GEtKmAveKFKE6M-39" value="" style="endArrow=none;html=1;rounded=0;exitX=1;exitY=0.5;exitDx=0;exitDy=0;entryX=0;entryY=0.5;entryDx=0;entryDy=0;" edge="1" parent="1" source="VNx4k_GEtKmAveKFKE6M-4" target="VNx4k_GEtKmAveKFKE6M-37">
          <mxGeometry relative="1" as="geometry">
            <mxPoint x="569" y="230" as="sourcePoint" />
            <mxPoint x="729" y="230" as="targetPoint" />
          </mxGeometry>
        </mxCell>
        <mxCell id="VNx4k_GEtKmAveKFKE6M-40" value="1" style="edgeLabel;html=1;align=center;verticalAlign=middle;resizable=0;points=[];" vertex="1" connectable="0" parent="VNx4k_GEtKmAveKFKE6M-39">
          <mxGeometry x="-0.6053" y="2" relative="1" as="geometry">
            <mxPoint as="offset" />
          </mxGeometry>
        </mxCell>
        <mxCell id="VNx4k_GEtKmAveKFKE6M-41" value="N" style="edgeLabel;html=1;align=center;verticalAlign=middle;resizable=0;points=[];" vertex="1" connectable="0" parent="VNx4k_GEtKmAveKFKE6M-39">
          <mxGeometry x="0.4557" y="-2" relative="1" as="geometry">
            <mxPoint y="-4" as="offset" />
          </mxGeometry>
        </mxCell>
      </root>
    </mxGraphModel>
  </diagram>
</mxfile>
